<?xml version="1.0" encoding="utf-8"?>
<!-- Generator: Adobe Illustrator 16.0.0, SVG Export Plug-In . SVG Version: 6.00 Build 0)  -->
<!DOCTYPE svg PUBLIC "-//W3C//DTD SVG 1.1//EN" "http://www.w3.org/Graphics/SVG/1.1/DTD/svg11.dtd">
<svg version="1.1" id="Layer_1" xmlns="http://www.w3.org/2000/svg" xmlns:xlink="http://www.w3.org/1999/xlink" x="0px" y="0px"
	 width="50px" height="50px" viewBox="0 0 50 50" enable-background="new 0 0 50 50" xml:space="preserve">
<g>
	<path fill-rule="evenodd" clip-rule="evenodd" fill="#FFFFFF" d="M11.634,33.377c0.406,0.406,0.742,0.742,1.079,1.078
		c6.842-6.842,13.679-13.68,20.476-20.477c1.905,1.905,3.742,3.743,5.531,5.532c-7.146,7.146-14.362,14.362-21.537,21.537
		c-2.506-2.507-5.091-5.091-7.64-7.641c7.153-7.153,14.371-14.371,21.6-21.6c0.298,0.323,0.639,0.692,0.989,1.073
		C25.331,19.68,18.484,26.525,11.634,33.377z"/>
	<path fill-rule="evenodd" clip-rule="evenodd" fill="#FFFFFF" d="M32.223,10.658c0.693-0.712,1.387-1.514,2.176-2.21
		c1.18-1.042,2.892-0.938,4.002,0.166c1.203,1.195,2.401,2.395,3.598,3.598c1.118,1.123,1.208,2.858,0.148,4.036
		c-0.694,0.771-1.477,1.465-2.18,2.154C37.396,15.831,34.812,13.248,32.223,10.658z"/>
	<path fill-rule="evenodd" clip-rule="evenodd" fill="#FFFFFF" d="M8.464,34.529c2.552,2.552,5.081,5.082,7.623,7.623
		c-2.947,0.445-5.922,0.896-8.979,1.358C7.565,40.482,8.016,37.496,8.464,34.529z"/>
</g>
</svg>
